# xmcd
#
# Track frame offsets:
#	150
#	17137
#	40262
#	57577
#	88470
#	115317
#	126632
#	142537
#	158405
#	169620
#
# Disc length: 2425
#
# Revision: 2
# Processed by: cddbd v1.5.1PL0 Copyright (c) Steve Scherf et al.
# Submitted via: CDex 1.30
# Normalized: r1:TRMNUM
#
DISCID=8409770a
DTITLE=Downtown Blues Band - Downtown Blues Band
DYEAR=1992
DGENRE=Blues
TTITLE0=Downtown Blues Band - I Do Everything
TTITLE1=Downtown Blues Band - No More Tricks
TTITLE2=Downtown Blues Band - By My Side
TTITLE3=Downtown Blues Band - Feelin' Blue
TTITLE4=Downtown Blues Band - Lovesick Blues
TTITLE5=Downtown Blues Band - Early One Morning
TTITLE6=Downtown Blues Band - Feats Don't Fail Me Now
TTITLE7=Downtown Blues Band - He's Mine
TTITLE8=Downtown Blues Band - She Loves My Automobile
TTITLE9=Downtown Blues Band - Housewife Most Favorit Boogie
EXTD=\nYEAR: 1992  ID3G:   0
EXTT0=
EXTT1=
EXTT2=
EXTT3=
EXTT4=
EXTT5=
EXTT6=
EXTT7=
EXTT8=
EXTT9=
PLAYORDER=
